<svg xmlns="http://www.w3.org/2000/svg" width="38" height="38"><defs><radialGradient id="francium_svg__a" gradientUnits="userSpaceOnUse" cx="0" cy="0" fx="0" fy="0" r="1" gradientTransform="matrix(7.56773 19.81721 -15.13622 5.78017 11.083 8.707)"><stop offset="0.611" stop-color="#71fbc0"></stop><stop offset="1" stop-color="#6390f8"></stop></radialGradient><linearGradient id="francium_svg__b" gradientUnits="userSpaceOnUse" x1="23.343" y1="26.199" x2="33.457" y2="20.513" gradientTransform="scale(.79167)"><stop offset="0" stop-color="#69f9bc"></stop><stop offset="1" stop-color="#659ef1"></stop></linearGradient></defs><path d="M19 38c10.492 0 19-8.508 19-19S29.492 0 19 0 0 8.508 0 19s8.508 19 19 19zm0 0" fill="#0f1118"></path><path d="M11.105 26.535c0 1.324 1.532 1.985 2.66 1.988.227.004.454.004.645-.144.297-.234.293-.559.293-.895-.027-3.859.02-7.718 0-11.578v-.004c-.004-.863-.012-1.77.485-2.511.707-1.051 2-1.043 3.14-1.04h.004c2.258.008 4.52-.058 6.777.004 1.657.043 1.188-1.511.336-2.425-.804-.86-1.886-1.23-3.035-1.223-2.2.023-4.402.012-6.601.004h-.004c-1.63-.008-3.309.191-4.22 1.695-.5.828-.503 1.711-.503 2.645 0 3.937.008 7.875.02 11.812 0 .559.003 1.024.003 1.672zm0 0" fill="url(#francium_svg__a)"></path><path d="M23.344 16.242c-2.453 0-4.864 1.961-4.864 4.5h4.864c1.785 0 3.144-2.441 3.144-4.5zm0 0" fill="url(#francium_svg__b)"></path><path d="M22.988 20.742H18.48a889.493 889.493 0 012.926 5.7c.504 1 1.465 2.081 3.121 2.081h2.391zm0 0" fill="#165d79"></path></svg>