<svg viewBox="0 0 48 48" fill="none" xmlns="http://www.w3.org/2000/svg" width="38" height="38"><path d="M24 48c13.255 0 24-10.745 24-24S37.255 0 24 0 0 10.745 0 24s10.745 24 24 24z" fill="#0F1118"></path><rect x="19.82" y="13.473" width="6.326" height="1.908" rx="0.5" transform="rotate(-45 19.82 13.473)" fill="url(#katana_svg__paint0_linear_10783_215)"></rect><rect x="14.405" y="18.888" width="6.144" height="1.908" rx="0.5" transform="rotate(-45 14.405 18.888)" fill="url(#katana_svg__paint1_linear_10783_215)"></rect><rect x="11.194" y="22.099" width="3.116" height="1.908" rx="0.5" transform="rotate(-45 11.194 22.099)" fill="url(#katana_svg__paint2_linear_10783_215)"></rect><rect x="9" y="24.293" width="1.768" height="1.908" rx="0.5" transform="rotate(-45 9 24.293)" fill="url(#katana_svg__paint3_linear_10783_215)"></rect><rect x="28.741" y="22.362" width="6.303" height="1.908" rx="0.5" transform="rotate(-45 28.741 22.362)" fill="url(#katana_svg__paint4_linear_10783_215)"></rect><rect x="23.326" y="27.777" width="6.166" height="1.908" rx="0.5" transform="rotate(-45 23.326 27.777)" fill="url(#katana_svg__paint5_linear_10783_215)"></rect><rect x="20.163" y="30.941" width="3.094" height="1.908" rx="0.5" transform="rotate(-45 20.163 30.94)" fill="url(#katana_svg__paint6_linear_10783_215)"></rect><rect x="17.905" y="33.198" width="1.701" height="1.908" rx="0.5" transform="rotate(-45 17.905 33.198)" fill="url(#katana_svg__paint7_linear_10783_215)"></rect><rect x="36.656" y="23.352" width="1.406" height="1.908" rx="0.5" transform="rotate(-45 36.656 23.352)" fill="url(#katana_svg__paint8_linear_10783_215)"></rect><rect x="34.075" y="25.934" width="2.382" height="1.908" rx="0.5" transform="rotate(-45 34.075 25.934)" fill="url(#katana_svg__paint9_linear_10783_215)"></rect><rect x="29.967" y="30.042" width="4.652" height="1.908" rx="0.5" transform="rotate(-45 29.967 30.042)" fill="url(#katana_svg__paint10_linear_10783_215)"></rect><rect x="22.358" y="37.651" width="9.514" height="1.908" rx="0.5" transform="rotate(-45 22.358 37.65)" fill="url(#katana_svg__paint11_linear_10783_215)"></rect><rect x="27.688" y="14.51" width="1.495" height="1.908" rx="0.5" transform="rotate(-45 27.688 14.51)" fill="url(#katana_svg__paint12_linear_10783_215)"></rect><rect x="25.154" y="17.044" width="2.404" height="1.908" rx="0.5" transform="rotate(-45 25.154 17.044)" fill="url(#katana_svg__paint13_linear_10783_215)"></rect><rect x="21.046" y="21.152" width="4.764" height="1.908" rx="0.5" transform="rotate(-45 21.046 21.152)" fill="url(#katana_svg__paint14_linear_10783_215)"></rect><rect x="13.453" y="28.745" width="9.514" height="1.908" rx="0.5" transform="rotate(-45 13.453 28.745)" fill="url(#katana_svg__paint15_linear_10783_215)"></rect><defs><linearGradient id="katana_svg__paint0_linear_10783_215" x1="19.887" y1="14.579" x2="25.696" y2="15.707" gradientUnits="userSpaceOnUse"><stop stop-color="#8F65E0"></stop><stop offset="1" stop-color="#6C85D8"></stop></linearGradient><linearGradient id="katana_svg__paint1_linear_10783_215" x1="14.47" y1="19.993" x2="20.124" y2="21.06" gradientUnits="userSpaceOnUse"><stop stop-color="#6C85D8"></stop><stop offset="1" stop-color="#8F65E0"></stop></linearGradient><linearGradient id="katana_svg__paint2_linear_10783_215" x1="11.227" y1="23.204" x2="14.17" y2="23.486" gradientUnits="userSpaceOnUse"><stop stop-color="#8F65E0"></stop><stop offset="1" stop-color="#6C85D8"></stop></linearGradient><linearGradient id="katana_svg__paint3_linear_10783_215" x1="9.019" y1="25.399" x2="10.698" y2="25.49" gradientUnits="userSpaceOnUse"><stop stop-color="#6C85D8"></stop><stop offset="1" stop-color="#8F65E0"></stop></linearGradient><linearGradient id="katana_svg__paint4_linear_10783_215" x1="28.808" y1="23.468" x2="34.598" y2="24.589" gradientUnits="userSpaceOnUse"><stop stop-color="#8F65E0"></stop><stop offset="1" stop-color="#6C85D8"></stop></linearGradient><linearGradient id="katana_svg__paint5_linear_10783_215" x1="23.392" y1="28.883" x2="29.064" y2="29.957" gradientUnits="userSpaceOnUse"><stop stop-color="#6C85D8"></stop><stop offset="1" stop-color="#8F65E0"></stop></linearGradient><linearGradient id="katana_svg__paint6_linear_10783_215" x1="20.195" y1="32.047" x2="23.118" y2="32.324" gradientUnits="userSpaceOnUse"><stop stop-color="#8F65E0"></stop><stop offset="1" stop-color="#6C85D8"></stop></linearGradient><linearGradient id="katana_svg__paint7_linear_10783_215" x1="17.924" y1="34.304" x2="19.54" y2="34.388" gradientUnits="userSpaceOnUse"><stop stop-color="#6C85D8"></stop><stop offset="1" stop-color="#8F65E0"></stop></linearGradient><linearGradient id="katana_svg__paint8_linear_10783_215" x1="36.671" y1="24.458" x2="38.009" y2="24.516" gradientUnits="userSpaceOnUse"><stop stop-color="#8F65E0"></stop><stop offset="1" stop-color="#6C85D8"></stop></linearGradient><linearGradient id="katana_svg__paint9_linear_10783_215" x1="34.1" y1="27.04" x2="36.358" y2="27.205" gradientUnits="userSpaceOnUse"><stop stop-color="#6C85D8"></stop><stop offset="1" stop-color="#8F65E0"></stop></linearGradient><linearGradient id="katana_svg__paint10_linear_10783_215" x1="30.016" y1="31.148" x2="34.361" y2="31.768" gradientUnits="userSpaceOnUse"><stop stop-color="#8F65E0"></stop><stop offset="1" stop-color="#6C85D8"></stop></linearGradient><linearGradient id="katana_svg__paint11_linear_10783_215" x1="22.459" y1="38.756" x2="30.812" y2="41.197" gradientUnits="userSpaceOnUse"><stop stop-color="#6C85D8"></stop><stop offset="1" stop-color="#8F65E0"></stop></linearGradient><linearGradient id="katana_svg__paint12_linear_10783_215" x1="27.704" y1="15.616" x2="29.126" y2="15.681" gradientUnits="userSpaceOnUse"><stop stop-color="#8F65E0"></stop><stop offset="1" stop-color="#6C85D8"></stop></linearGradient><linearGradient id="katana_svg__paint13_linear_10783_215" x1="25.18" y1="18.15" x2="27.458" y2="18.318" gradientUnits="userSpaceOnUse"><stop stop-color="#6C85D8"></stop><stop offset="1" stop-color="#8F65E0"></stop></linearGradient><linearGradient id="katana_svg__paint14_linear_10783_215" x1="21.096" y1="22.258" x2="25.541" y2="22.908" gradientUnits="userSpaceOnUse"><stop stop-color="#8F65E0"></stop><stop offset="1" stop-color="#6C85D8"></stop></linearGradient><linearGradient id="katana_svg__paint15_linear_10783_215" x1="13.553" y1="29.851" x2="21.907" y2="32.292" gradientUnits="userSpaceOnUse"><stop stop-color="#6C85D8"></stop><stop offset="1" stop-color="#8F65E0"></stop></linearGradient></defs></svg>