<svg xmlns="http://www.w3.org/2000/svg" width="38" height="38" preserveAspectRatio="xMidYMin slice" style="width: 100%;padding-bottom: 92%;height: 1px;overflow: visible;"><defs><linearGradient id="larix_svg__a" gradientUnits="userSpaceOnUse" x1="48" y1="0" x2="0" y2="48" gradientTransform="scale(.79167)"><stop offset="0" stop-color="#71eac5"></stop><stop offset="0.536" stop-color="#6776e3"></stop><stop offset="1" stop-color="#b447f2"></stop></linearGradient></defs><path d="M19 38c10.492 0 19-8.508 19-19S29.492 0 19 0 0 8.508 0 19s8.508 19 19 19zm0 0" fill="url(#larix_svg__a)"></path><path d="M12.148 13.07c1.528 0 2.989.082 4.48.453.56.141 1.106.317 1.645.516.211.078.5.274.727.274.23 0 .516-.196.73-.274.54-.2 1.086-.375 1.641-.516 1.492-.37 2.957-.453 4.484-.453-.222-.578-.816-1.156-1.222-1.613a19.476 19.476 0 00-3.754-3.25c-.434-.289-.879-.559-1.332-.816-.145-.082-.371-.266-.547-.266-.18 0-.418.195-.57.281-.446.254-.88.52-1.305.801a19.36 19.36 0 00-3.754 3.25c-.406.457-1 1.04-1.223 1.613zm0 0M9.75 19.012c.73-.18 1.543-.235 2.293-.235.3 0 .879.114 1.145-.027.16-.082.289-.305.406-.441.226-.262.472-.508.719-.754.851-.852 1.863-1.805 2.968-2.32-.304-.227-.883-.294-1.25-.376a15.47 15.47 0 00-3.363-.355c-.34 0-.676.035-1.016.05-.12.008-.332-.003-.433.075-.25.2-.41.781-.531 1.074-.313.762-.586 1.543-.766 2.348-.07.312-.168.64-.172.96zm0 0M20.723 15.207v.027c1.125.528 2.152 1.504 3.02 2.371.245.247.484.493.706.758.106.117.211.309.348.387.09.055.23.027.328.027h.754c.805 0 1.578.176 2.375.211-.008-.37-.125-.761-.215-1.12a14.7 14.7 0 00-1.098-2.973c-.043-.09-.086-.227-.18-.282-.12-.07-.327-.047-.464-.058-.363-.04-.727-.051-1.094-.051-1.531 0-3.023.23-4.48.703zm0 0M23.64 29.41c-.206-.906-.675-1.824-1.21-2.578-.254-.363-.57-.684-.825-1.043-.242.078-.457.273-.675.406-.403.242-.817.453-1.25.64a6.789 6.789 0 01-5.032.102c-.5-.187-.988-.43-1.433-.722-.113-.078-.39-.207-.43-.348-.043-.168.297-.52.387-.652.441-.64.953-1.25 1.504-1.797 2.324-2.324 5.16-3.824 8.39-4.43-.195-.281-.46-.5-.703-.73a13.001 13.001 0 00-2.265-1.735c-.278-.168-.766-.574-1.098-.574-.238 0-.559.274-.754.395-.66.41-1.285.883-1.875 1.386-.64.543-1.32 1.094-1.871 1.727-1.164 1.34-1.98 2.961-2.535 4.637a12.873 12.873 0 00-.438 1.8c-.035.208-.132.52-.082.727.09.352.59.758.832 1.016.91.98 2 1.847 3.23 2.383a8.745 8.745 0 003.52.746c1.23 0 2.418-.278 3.543-.778.371-.168.703-.406 1.07-.578zm0 0M25.855 20.21c.125.43.47.849.672 1.25.512 1.028 1.055 2.216 1.203 3.364.227-.191.344-.574.477-.832.36-.722.668-1.469.895-2.242.07-.25.132-.5.171-.758.012-.082.047-.199-.02-.27-.148-.16-.636-.187-.843-.23-.844-.172-1.7-.242-2.555-.281zm0 0" fill="#fff"></path><path d="M14.805 25.45c1.695.655 3.39.605 5.004-.27.468-.25.921-.547 1.328-.887.117-.098.355-.414.511-.418.106-.004.23.18.297.246.25.242.508.469.739.73a11.722 11.722 0 012.18 3.594c.5-.258.948-.875 1.304-1.3.121-.145.344-.34.39-.524.087-.34-.109-.914-.187-1.25-.242-1.066-.566-2.117-1.058-3.101a16.95 16.95 0 00-.766-1.38c-.102-.163-.227-.449-.395-.554-.144-.09-.484.02-.644.043-.606.094-1.203.234-1.797.402-2.117.606-4.148 1.782-5.707 3.34-.414.414-.871.836-1.2 1.328zm0 0M8.707 20.758c.023 1.027.559 2.176 1.012 3.078.16.32.297.71.527.988l.645-2.058.945-2.008zm0 0" fill="#fff"></path></svg>