<svg viewBox="0 0 48 48" fill="none" xmlns="http://www.w3.org/2000/svg" width="38" height="38"><path d="M24 48c13.255 0 24-10.745 24-24S37.255 0 24 0 0 10.745 0 24s10.745 24 24 24z" fill="#0F1118"></path><path d="M20.326 38.547c1.176.296 2.407.453 3.674.453 8.284 0 15-6.716 15-15 0-1.345-.177-2.65-.51-3.89l-1.178.55c-1.195.558-2.173 1.476-2.984 2.516a18.062 18.062 0 01-14.002 6.945v8.426z" fill="url(#psyfinance_svg__paint0_radial_11006_279)"></path><path d="M20.326 27.06a15.002 15.002 0 0011.125-5.203H20.326v5.202z" fill="url(#psyfinance_svg__paint1_radial_11006_279)"></path><path d="M17.265 21.857v5.204H9.313a15.066 15.066 0 01-.161-5.204h8.113z" fill="url(#psyfinance_svg__paint2_radial_11006_279)"></path><path d="M20.326 18.796h12.248c.985 0 1.957-.216 2.849-.632l1.973-.92C34.924 12.353 29.854 9 24 9c-1.267 0-2.498.157-3.674.453v9.343z" fill="url(#psyfinance_svg__paint3_radial_11006_279)"></path><path d="M17.265 10.593v8.203H9.927a15.051 15.051 0 017.338-8.203z" fill="url(#psyfinance_svg__paint4_radial_11006_279)"></path><path d="M17.265 30.122v7.285a15.06 15.06 0 01-6.963-7.285h6.963z" fill="url(#psyfinance_svg__paint5_radial_11006_279)"></path><defs><radialGradient id="psyfinance_svg__paint0_radial_11006_279" cx="0" cy="0" r="1" gradientUnits="userSpaceOnUse" gradientTransform="rotate(119.745 12.045 13.005) scale(30.2335)"><stop stop-color="#D43F7C"></stop><stop offset="1" stop-color="#2D4CC3"></stop></radialGradient><radialGradient id="psyfinance_svg__paint1_radial_11006_279" cx="0" cy="0" r="1" gradientUnits="userSpaceOnUse" gradientTransform="rotate(119.745 12.045 13.005) scale(30.2335)"><stop stop-color="#D43F7C"></stop><stop offset="1" stop-color="#2D4CC3"></stop></radialGradient><radialGradient id="psyfinance_svg__paint2_radial_11006_279" cx="0" cy="0" r="1" gradientUnits="userSpaceOnUse" gradientTransform="rotate(119.745 12.045 13.005) scale(30.2335)"><stop stop-color="#D43F7C"></stop><stop offset="1" stop-color="#2D4CC3"></stop></radialGradient><radialGradient id="psyfinance_svg__paint3_radial_11006_279" cx="0" cy="0" r="1" gradientUnits="userSpaceOnUse" gradientTransform="rotate(119.745 12.045 13.005) scale(30.2335)"><stop stop-color="#D43F7C"></stop><stop offset="1" stop-color="#2D4CC3"></stop></radialGradient><radialGradient id="psyfinance_svg__paint4_radial_11006_279" cx="0" cy="0" r="1" gradientUnits="userSpaceOnUse" gradientTransform="rotate(119.745 12.045 13.005) scale(30.2335)"><stop stop-color="#D43F7C"></stop><stop offset="1" stop-color="#2D4CC3"></stop></radialGradient><radialGradient id="psyfinance_svg__paint5_radial_11006_279" cx="0" cy="0" r="1" gradientUnits="userSpaceOnUse" gradientTransform="rotate(119.745 12.045 13.005) scale(30.2335)"><stop stop-color="#D43F7C"></stop><stop offset="1" stop-color="#2D4CC3"></stop></radialGradient></defs></svg>