<svg viewBox="0 0 39 39" fill="none" xmlns="http://www.w3.org/2000/svg" width="38" height="38"><rect x="0.998" y="0.003" width="38.002" height="38.002" rx="19.001" fill="url(#raydium_svg__paint0_linear_11201_42320)"></rect><path d="M28.188 16.438v7.177l-7.984 4.608-7.988-4.608v-9.221l7.988-4.613 6.136 3.544.926-.534-7.062-4.079-8.914 5.147v10.29l8.914 5.148 8.915-5.148v-8.246l-.931.534z" fill="#fff"></path><path d="M17.97 23.62h-1.336v-4.48h4.452a1.602 1.602 0 001.467-2.205c-.08-.193-.2-.366-.35-.51a1.543 1.543 0 00-1.117-.468h-4.452v-1.363h4.457a2.966 2.966 0 012.947 2.948 2.863 2.863 0 01-.52 1.67 2.902 2.902 0 01-1.283 1.05 5.143 5.143 0 01-1.594.24h-2.672v3.117zM24.007 23.508h-1.559l-1.202-2.097c.476-.03.945-.125 1.394-.285l1.367 2.382zM27.258 14.946l.921.512.922-.512v-1.082l-.922-.534-.921.534v1.082z" fill="#fff"></path><defs><linearGradient id="raydium_svg__paint0_linear_11201_42320" x1="39" y1="0.003" x2="5.113" y2="41.376" gradientUnits="userSpaceOnUse"><stop stop-color="#C200FB"></stop><stop offset="0.481" stop-color="#3773FE"></stop><stop offset="0.49" stop-color="#3772FF"></stop><stop offset="1" stop-color="#5AC4BE"></stop></linearGradient></defs></svg>