<svg viewBox="0 0 20 20" fill="none" xmlns="http://www.w3.org/2000/svg" width="20" height="20"><rect width="20" height="20" rx="10" fill="#00A3FF"></rect><path opacity="0.6" d="M14.102 9.29l.112.171a4.824 4.824 0 01-.678 6.1 5.036 5.036 0 01-3.534 1.434l4.1-7.705z" fill="#fff"></path><path opacity="0.2" d="M10.002 11.631l4.1-2.341-4.1 7.705V11.63z" fill="#fff"></path><path d="M5.898 9.29l-.112.171a4.824 4.824 0 00.678 6.1 5.036 5.036 0 003.534 1.434l-4.1-7.705z" fill="#fff"></path><path opacity="0.6" d="M9.997 11.631l-4.1-2.341 4.1 7.705V11.63z" fill="#fff"></path><path opacity="0.2" d="M10.003 6.4v4.039l3.532-2.018L10.003 6.4z" fill="#fff"></path><path opacity="0.6" d="M10.002 6.4L6.468 8.42l3.534 2.019v-4.04z" fill="#fff"></path><path d="M10.002 3.003L6.468 8.422l3.534-2.027V3.003z" fill="#fff"></path><path opacity="0.6" d="M10.003 6.395l3.534 2.026L10.003 3v3.395z" fill="#fff"></path></svg>