<svg width="135" height="50" viewBox="0 0 135 50" fill="none" xmlns="http://www.w3.org/2000/svg">
<path d="M134.216 27.2473C133.693 25.8114 132.948 24.5887 131.978 23.5814C131.007 22.5738 129.841 21.7904 128.479 21.2306C127.117 20.6707 125.596 20.3907 123.918 20.3907C121.903 20.3907 120.186 20.7546 118.769 21.4827C117.35 22.2105 116.286 22.9846 115.579 23.8053V20.9019C114.231 21.8643 111.363 22.5757 107.91 22.748V49.6081H115.691V33.9361C115.691 31.921 116.268 30.3541 117.425 29.2342C118.582 28.1151 120.112 27.5555 122.015 27.5555C123.694 27.5555 124.99 28.0872 125.905 29.1503C126.819 30.2141 127.276 31.6042 127.276 33.3203V49.6081H135V31.9771C135 30.261 134.739 28.6848 134.216 27.2473ZM96.9959 49.6081H104.776V22.7543C101.277 22.5932 98.3643 21.8791 96.9959 20.9095V49.6081ZM78.0772 49.6079V20.8946H85.8581V24.8126C86.8276 23.5071 88.013 22.4617 89.4113 21.6786C90.811 20.8946 92.4061 20.5028 94.1979 20.5028V28.339C91.3231 28.339 89.2243 29.076 87.9012 30.55C86.5751 32.0243 85.9143 34.011 85.9143 36.5108V49.6079H78.0772ZM59.4398 43.1155C60.5595 43.1155 61.5947 42.9193 62.5464 42.5277C63.4981 42.1356 64.3271 41.586 65.0372 40.8765C65.7446 40.1685 66.2961 39.347 66.6882 38.4138C67.0801 37.4817 67.2754 36.4739 67.2754 35.3917C67.2754 34.3469 67.0705 33.348 66.6596 32.3969C66.2483 31.4452 65.6899 30.6249 64.9813 29.9341C64.271 29.2438 63.4422 28.6944 62.4905 28.2831C61.5385 27.8729 60.5213 27.6673 59.4398 27.6673C58.3568 27.6673 57.3585 27.8729 56.445 28.2831C55.53 28.6944 54.7379 29.2438 54.0662 29.9341C53.3943 30.6249 52.863 31.4452 52.4711 32.3969C52.0793 33.348 51.884 34.3469 51.884 35.3917C51.884 36.4739 52.0793 37.4817 52.4711 38.4138C52.863 39.347 53.3943 40.1685 54.0662 40.8765C54.7379 41.586 55.53 42.1356 56.445 42.5277C57.3585 42.9193 58.3568 43.1155 59.4398 43.1155V43.1155ZM67.1633 47.4812C66.1557 48.2652 64.9156 48.8803 63.4422 49.3281C61.9673 49.7761 60.4092 50 58.7679 50C56.7905 50 54.9251 49.6265 53.1704 48.8803C51.417 48.1347 49.8874 47.1085 48.5818 45.8023C47.2752 44.496 46.2304 42.9569 45.4464 41.1845C44.6627 39.4127 44.2722 37.4817 44.2722 35.3917C44.2722 33.3399 44.6627 31.4089 45.4464 29.5983C46.2304 27.789 47.2752 26.2217 48.5818 24.8964C49.8874 23.5727 51.417 22.5272 53.1704 21.7625C54.9251 20.9977 56.7905 20.6146 58.7679 20.6146C60.4092 20.6146 61.9673 20.8481 63.4422 21.3145C64.9156 21.7817 66.1557 22.4056 67.1633 23.1896V11.268H74.943V49.6079H67.1633V47.4812ZM33.8049 11.268H41.642V49.6079H33.8049V11.268ZM15.1675 27.6673C14.0848 27.6673 13.0863 27.8729 12.1727 28.2831C11.2579 28.6944 10.4659 29.2438 9.79395 29.9341C9.12205 30.6249 8.59078 31.4452 8.19912 32.3969C7.80703 33.348 7.61193 34.3469 7.61193 35.3917C7.61193 36.4739 7.80703 37.4817 8.19912 38.4138C8.59078 39.347 9.12205 40.1685 9.79395 40.8765C10.4659 41.586 11.2579 42.1356 12.1727 42.5277C13.0863 42.9193 14.0848 43.1155 15.1675 43.1155C16.2874 43.1155 17.3224 42.9193 18.2743 42.5277C19.2261 42.1356 20.0549 41.586 20.765 40.8765C21.4724 40.1685 22.0241 39.347 22.416 38.4138C22.808 37.4817 23.0033 36.4739 23.0033 35.3917C23.0033 34.3469 22.7984 33.348 22.3874 32.3969C21.9763 31.4452 21.4179 30.6249 20.7091 29.9341C19.999 29.2438 19.1702 28.6944 18.2182 28.2831C17.2665 27.8729 16.249 27.6673 15.1675 27.6673V27.6673ZM22.8913 47.4812C21.8834 48.2652 20.6435 48.8803 19.1701 49.3281C17.6953 49.7761 16.1372 50 14.4956 50C12.5183 50 10.653 49.6265 8.89814 48.8803C7.14472 48.1347 5.61541 47.1085 4.30979 45.8023C3.00291 44.496 1.95834 42.9569 1.17438 41.1845C0.390633 39.4127 0 37.4817 0 35.3917C0 33.3399 0.390633 31.4089 1.17438 29.5983C1.95834 27.789 3.00291 26.2217 4.30979 24.8964C5.61541 23.5727 7.14472 22.5272 8.89814 21.7625C10.653 20.9977 12.5183 20.6146 14.4956 20.6146C16.1372 20.6146 17.6953 20.8481 19.1701 21.3145C20.6435 21.7817 21.8834 22.4056 22.8913 23.1896V20.8946H30.671V49.6079H22.8913V47.4812Z" fill="#282828"/>
<path d="M112.982 10.6098L112.878 11.7564L112.695 12.8951L112.434 14.0213L112.424 14.0534L112.412 14.0851L112.398 14.1158L112.382 14.146L112.363 14.175L112.343 14.203L112.321 14.2299L112.297 14.2554L112.271 14.2794L112.244 14.3021L112.215 14.3232L112.185 14.3426L112.153 14.3603L111.517 14.67L110.86 14.9436L110.186 15.18L109.497 15.3786L108.795 15.5383L108.084 15.6587L107.366 15.7392L106.656 15.7772L106.643 15.7795H106.281H105.92L105.907 15.7772L105.197 15.7392L104.479 15.6587L103.768 15.5383L103.066 15.3786L102.377 15.18L101.703 14.9436L101.046 14.67L100.41 14.3603L100.379 14.3426L100.348 14.3232L100.319 14.3021L100.292 14.2794L100.266 14.2554L100.242 14.2299L100.22 14.203L100.2 14.175L100.181 14.146L100.165 14.1158L100.151 14.0851L100.139 14.0534L100.129 14.0213L99.8677 12.8951L99.6851 11.7564L99.5814 10.6098L99.5572 9.45961L99.6125 8.31027L99.7471 7.16637L99.9606 6.03206L99.9687 6.00097L99.9787 5.97009L99.9873 5.9488L99.9908 5.93983L100.005 5.91041L100.021 5.88182L100.255 5.52229L100.515 5.17736L100.799 4.8483L101.106 4.53655L101.236 4.42074L101.435 4.24337L101.785 3.97023L102.153 3.71774L102.539 3.48759L102.941 3.28038L103.357 3.09717L103.786 2.9388L104.225 2.80567L104.673 2.69841L105.128 2.61766L105.587 2.5634L106.05 2.53649H106.281H106.513L106.976 2.5634L107.435 2.61766L107.89 2.69841L108.338 2.80567L108.777 2.9388L109.206 3.09717L109.622 3.28038L110.024 3.48759L110.41 3.71774L110.778 3.97023L111.128 4.24337L111.327 4.42074L111.457 4.53655L111.764 4.8483L112.048 5.17736L112.308 5.52229L112.542 5.88182L112.558 5.91041L112.572 5.93983L112.576 5.9488L112.584 5.97009L112.594 6.00097L112.603 6.03206L112.816 7.16637L112.951 8.31027L113.006 9.45961L112.982 10.6098ZM115.597 8.33177L115.586 8.23328L115.569 8.13604L115.545 8.03963L115.516 7.9449L115.48 7.85225L115.439 7.7619L115.392 7.67405L115.339 7.58933L115.281 7.50774L115.218 7.42991L115.15 7.35604L115.078 7.28635L115.001 7.22125L114.92 7.16073L114.835 7.10523L114.715 7.03658L114.684 7.01634L114.655 6.99443L114.627 6.97064L114.601 6.94539L114.576 6.91868L114.553 6.8903L114.532 6.86067L114.513 6.82979L114.496 6.79786L114.481 6.7651L114.468 6.73151L114.376 6.493L114.269 6.26097L114.145 6.03623L114.007 5.81964L113.855 5.61222L113.689 5.41482L113.51 5.22849L113.319 5.05404L113.116 4.8917L113.09 4.87104L113.065 4.84892L113.042 4.82555L113.02 4.80093L112.999 4.77505L112.98 4.74814L112.962 4.72017L112.706 4.31557L112.423 3.92766L112.116 3.55791L111.785 3.20777L111.431 2.87891L111.056 2.57238L110.662 2.28963L110.251 2.03193L109.823 1.79989L109.38 1.59499L108.925 1.41762L108.459 1.26884L107.985 1.14907L107.503 1.05871L107.016 0.998201L106.527 0.967943H106.281H106.036L105.547 0.998201L105.06 1.05871L104.578 1.14907L104.104 1.26884L103.638 1.41762L103.183 1.59499L102.74 1.79989L102.312 2.03193L101.901 2.28963L101.507 2.57238L101.132 2.87891L100.778 3.20777L100.447 3.55791L100.14 3.92766L99.8571 4.31557L99.6008 4.72017L99.5833 4.74814L99.5641 4.77505L99.5435 4.80093L99.5213 4.82555L99.498 4.84892L99.4731 4.87104L99.4468 4.8917L99.2442 5.05404L99.0531 5.22849L98.8743 5.41482L98.7082 5.61222L98.5556 5.81964L98.4177 6.03623L98.2944 6.26097L98.1869 6.493L98.0949 6.73151L98.0822 6.7651L98.0669 6.79786L98.0498 6.82979L98.0308 6.86067L98.0098 6.8903L97.987 6.91868L97.9622 6.94539L97.9359 6.97064L97.9079 6.99443L97.8785 7.01634L97.8478 7.03658L97.7279 7.10523L97.6433 7.16073L97.5624 7.22125L97.4854 7.28635L97.4132 7.35604L97.345 7.42991L97.2819 7.50774L97.2239 7.58933L97.1713 7.67405L97.1242 7.7619L97.0829 7.85225L97.0472 7.9449L97.0176 8.03963L96.9942 8.13604L96.9771 8.23328L96.966 8.33177L96.9614 8.43047L96.9629 8.52937L97.1722 13.0434L97.1776 13.1121L97.1874 13.1805L97.2014 13.2484L97.2195 13.3149L97.2419 13.3804L97.2686 13.4445L97.299 13.5071L97.3335 13.5674L97.3717 13.6258L97.4524 13.7339L97.5396 13.8372L97.6333 13.9351L97.7331 14.0273L97.8382 14.1135L97.9486 14.1934L98.0947 14.2863L98.1241 14.3075L98.1523 14.3307L98.1788 14.3553L98.2036 14.3816L98.2268 14.4092L98.2485 14.4382L98.2677 14.4684L98.2854 14.4997L98.3011 14.5319L98.4644 14.9348L98.637 15.2952C98.7653 15.5259 101.655 17.6539 101.655 17.6539C101.655 17.6539 103.154 18.3381 106.281 18.3381C109.409 18.3381 110.908 17.6539 110.908 17.6539C110.908 17.6539 113.798 15.5259 113.926 15.2952L114.099 14.9348L114.262 14.5319L114.278 14.4997L114.295 14.4684L114.315 14.4382L114.336 14.4092L114.359 14.3816L114.384 14.3553L114.411 14.3307L114.439 14.3075L114.468 14.2863L114.614 14.1934L114.725 14.1135L114.83 14.0273L114.93 13.9351L115.023 13.8372L115.111 13.7339L115.191 13.6258L115.23 13.5674L115.264 13.5071L115.294 13.4445L115.321 13.3804L115.343 13.3149L115.362 13.2484L115.376 13.1805L115.386 13.1121L115.391 13.0434L115.6 8.52937L115.602 8.43047L115.597 8.33177Z" fill="#282828"/>
<path d="M109.707 10.5464H108.825C108.714 10.5464 108.625 10.6361 108.625 10.7465V11.3548C108.625 11.4656 108.581 11.572 108.502 11.6505L108.446 11.7066C108.368 11.785 108.261 11.8289 108.15 11.8289H104.413C104.302 11.8289 104.196 11.785 104.117 11.7066L104.061 11.6505C103.983 11.572 103.939 11.4656 103.939 11.3548V10.7465C103.939 10.6361 103.849 10.5464 103.739 10.5464H102.856C102.746 10.5464 102.656 10.6361 102.656 10.7465V11.6288C102.656 11.7393 102.746 11.8289 102.856 11.8289H103.521C103.632 11.8289 103.738 11.8729 103.816 11.9514C103.895 12.0298 103.939 12.1362 103.939 12.247V12.8924C103.939 13.0128 104.037 13.1113 104.158 13.1113H104.158H108.405H108.406C108.526 13.1113 108.625 13.0128 108.625 12.8924V12.247C108.625 12.1362 108.669 12.0298 108.747 11.9514C108.825 11.8729 108.932 11.8289 109.043 11.8289H109.707C109.817 11.8289 109.907 11.7393 109.907 11.6288V10.7465C109.907 10.6361 109.817 10.5464 109.707 10.5464Z" fill="#282828"/>
</svg>
